<svg xmlns="http://www.w3.org/2000/svg" viewBox="0 0 513 574"><defs><style>.cls-1{fill:#3fa9f5;opacity:0.6;}.cls-1,.cls-3{stroke:#000;}.cls-1,.cls-2,.cls-3,.cls-5{stroke-miterlimit:10;stroke-width:5px;}.cls-2,.cls-3,.cls-5{fill:none;}.cls-2{stroke:#3f63f5;}.cls-2,.cls-3{stroke-dasharray:12;}.cls-4{fill:#ff931e;}.cls-5{stroke:#ff1d25;}.cls-6,.cls-7{fill:#ff1d25;}.cls-7,.cls-8{font-size:25px;font-family:MyriadPro-Regular, Myriad Pro;}.cls-8{fill:#3f63f5;}.cls-9{letter-spacing:-0.01em;}.cls-10{letter-spacing:0em;}.cls-11{letter-spacing:0em;}.cls-12{letter-spacing:-0.01em;}.cls-13{letter-spacing:-0.01em;}</style></defs><g id="Layer_2" data-name="Layer 2"><g id="Layer_1-2" data-name="Layer 1"><circle class="cls-1" cx="160.5" cy="413.5" r="158"/><circle class="cls-1" cx="352.5" cy="160.5" r="158"/><line class="cls-2" x1="160.5" y1="413.5" x2="352.5" y2="160.5"/><line class="cls-3" x1="368.18" y1="371.19" x2="115.18" y2="179.19"/><line class="cls-4" x1="256.77" y1="271.74" x2="367.37" y2="126"/><line class="cls-5" x1="256.77" y1="271.74" x2="363.91" y2="130.55"/><polygon class="cls-6" points="364.65 143.61 363.02 131.73 351.14 133.36 355.49 127.63 367.37 126 369 137.88 364.65 143.61"/><line class="cls-4" x1="261.12" y1="271.87" x2="115.39" y2="161.27"/><line class="cls-5" x1="261.12" y1="271.87" x2="119.94" y2="164.73"/><polygon class="cls-6" points="133 164 121.12 165.62 122.75 177.5 117.02 173.15 115.39 161.28 127.26 159.65 133 164"/><text class="cls-7" transform="translate(377.98 133.68)">X</text><text class="cls-7" transform="translate(125.06 150.63)">Y</text><text class="cls-8" transform="translate(211.89 394.3)"><tspan class="cls-9">Z</tspan><tspan x="13.53" y="0">e</tspan><tspan class="cls-10" x="26.05" y="0">n</tspan><tspan class="cls-11" x="39.82" y="0">t</tspan><tspan class="cls-12" x="48.1" y="0">r</tspan><tspan x="56.15" y="0">al-</tspan><tspan x="0" y="30">s</tspan><tspan class="cls-13" x="9.9" y="30">t</tspan><tspan class="cls-11" x="18.02" y="30">eigung</tspan></text></g></g></svg>