<svg xmlns="http://www.w3.org/2000/svg" viewBox="0 0 513 574"><defs><style>.cls-1{fill:#3fa9f5;opacity:0.6;}.cls-1,.cls-10,.cls-2{stroke:#000;}.cls-1,.cls-10,.cls-12,.cls-15,.cls-17,.cls-2,.cls-7{stroke-miterlimit:10;}.cls-1,.cls-12,.cls-15,.cls-17,.cls-2{stroke-width:5px;}.cls-12,.cls-15,.cls-17,.cls-2,.cls-7{fill:none;}.cls-17,.cls-2{stroke-dasharray:12;}.cls-16,.cls-3,.cls-5,.cls-6{font-size:25px;font-family:MyriadPro-Regular, Myriad Pro;}.cls-11,.cls-3,.cls-5{fill:#ff1d25;}.cls-4{letter-spacing:-0.09em;}.cls-5{letter-spacing:0.01em;}.cls-13,.cls-6{fill:#d4145a;}.cls-7{stroke:#fcd021;stroke-width:4px;}.cls-8,.cls-9{fill:#fcd021;}.cls-9{font-size:49.88px;font-family:ArialMT, Arial;}.cls-10{fill:#009245;opacity:0.7;}.cls-12{stroke:#d4145a;}.cls-14{fill:#ff931e;}.cls-15{stroke:#ff1d25;}.cls-16{fill:#002e37;}.cls-17{stroke:#3f63f5;}</style></defs><g id="Layer_2" data-name="Layer 2"><g id="Layer_1-2" data-name="Layer 1"><circle class="cls-1" cx="160.5" cy="413.5" r="158"/><circle class="cls-1" cx="352.5" cy="160.5" r="158"/><line class="cls-2" x1="368.18" y1="371.19" x2="115.18" y2="179.19"/><text class="cls-3" transform="translate(377.98 133.68)">X<tspan class="cls-4" x="14.28" y="0">’</tspan></text><text class="cls-5" transform="translate(125.06 150.63)">Y<tspan class="cls-4" x="13.9" y="0">’</tspan></text><text class="cls-6" transform="translate(436.78 251.04)">X</text><text class="cls-6" transform="translate(265.97 90.53)">Y</text><line class="cls-7" x1="357.26" y1="174.16" x2="357.26" y2="429.8"/><rect class="cls-8" x="349.46" y="172.96" width="15.6" height="2.4"/><rect class="cls-8" x="349.46" y="428.6" width="15.6" height="2.4"/><text class="cls-9" transform="translate(239.83 455.56) scale(0.58)">dx</text><text class="cls-9" transform="translate(367.4 351.69) scale(0.58)">dy</text><path class="cls-10" d="M315.23,269.5c6.67-6.3,9.54-15.78,8-22.72-1.78-7.93-16.23-21.92-26.7-27.28l-37,50Z"/><line class="cls-11" x1="258.89" y1="273.58" x2="257.86" y2="90.63"/><line class="cls-12" x1="258.89" y1="273.58" x2="257.89" y2="96.34"/><polygon class="cls-13" points="266.42 106.25 257.9 97.82 249.47 106.35 249.43 99.15 257.86 90.63 266.38 99.05 266.42 106.25"/><line class="cls-11" x1="256.35" y1="270.04" x2="439.3" y2="269.01"/><line class="cls-12" x1="256.35" y1="270.04" x2="433.58" y2="269.04"/><polygon class="cls-13" points="423.67 277.57 432.11 269.05 423.58 260.62 430.77 260.58 439.3 269 430.87 277.53 423.67 277.57"/><line class="cls-14" x1="261.12" y1="271.87" x2="115.39" y2="161.27"/><line class="cls-15" x1="261.12" y1="271.87" x2="119.94" y2="164.73"/><polygon class="cls-11" points="133 164 121.12 165.62 122.75 177.5 117.02 173.15 115.39 161.28 127.26 159.65 133 164"/><line class="cls-14" x1="256.77" y1="271.74" x2="367.37" y2="126"/><line class="cls-15" x1="256.77" y1="271.74" x2="363.91" y2="130.55"/><polygon class="cls-11" points="364.65 143.61 363.02 131.73 351.14 133.36 355.49 127.63 367.37 126 369 137.88 364.65 143.61"/><text class="cls-16" transform="translate(296.25 259.96)">α</text><path class="cls-10" d="M206.17,426.5c6.67-6.3,9.54-15.78,8-22.72-1.78-7.93-16.24-21.92-26.7-27.28l-37,50Z"/><text class="cls-16" transform="translate(187.19 416.96)">α</text><line class="cls-17" x1="160.5" y1="413.5" x2="352.5" y2="160.5"/><line class="cls-7" x1="178.57" y1="427.74" x2="343.8" y2="427.74"/><rect class="cls-8" x="177.37" y="419.94" width="2.4" height="15.6"/><rect class="cls-8" x="342.6" y="419.94" width="2.4" height="15.6"/></g></g></svg>