<svg xmlns="http://www.w3.org/2000/svg" viewBox="0 0 370 370"><defs><style>.cls-1{fill:#fa5c21;}.cls-2{fill:none;stroke:#000;stroke-miterlimit:10;stroke-width:3px;}</style></defs><g id="Layer_2" data-name="Layer 2"><g id="Layer_1-2" data-name="Layer 1"><circle class="cls-1" cx="185" cy="185" r="185"/><line class="cls-2" x1="185" y1="1.5" x2="185" y2="183.5"/><rect x="175.25" width="19.5" height="3"/><rect x="175.25" y="182" width="19.5" height="3"/><path d="M198.21,88.65h4.28v21.8h-4.28Zm10.56,4.12a5.12,5.12,0,0,0-2-.36,4.31,4.31,0,0,0-3.16,1.12,4.22,4.22,0,0,0-1.13,3.12l-.44-4.2a7.94,7.94,0,0,1,2.61-3,6.14,6.14,0,0,1,3.52-1.08,7.89,7.89,0,0,1,2.7.43A6,6,0,0,1,213,90l-2.79,3.78A3.6,3.6,0,0,0,208.77,92.77Z"/><path d="M216.33,123.62a5.14,5.14,0,0,1-1.29-3.73V111.8a5.35,5.35,0,0,1,8.87-3.73,5.12,5.12,0,0,1,1.29,3.73v8.09a5.09,5.09,0,0,1-1.3,3.73,6.05,6.05,0,0,1-7.57,0Zm5.74-1.74a2.85,2.85,0,0,0,.63-2V111.8a2.91,2.91,0,0,0-.62-2,3.13,3.13,0,0,0-3.92,0,2.86,2.86,0,0,0-.63,2v8.09a2.85,2.85,0,0,0,.64,2,3.1,3.1,0,0,0,3.9,0Z"/></g></g></svg>