<svg xmlns="http://www.w3.org/2000/svg" viewBox="0 0 952.69 725.2"><defs><style>.cls-1,.cls-4,.cls-5,.cls-7{fill:#3fa9f5;}.cls-1{opacity:0.32;}.cls-2,.cls-3{fill:none;}.cls-2,.cls-3,.cls-7{stroke:#000;stroke-miterlimit:10;}.cls-3,.cls-7{stroke-width:3px;}.cls-5,.cls-6{opacity:0.7;}.cls-6,.cls-8{font-size:47px;font-family:MyriadPro-Regular, Myriad Pro;}.cls-7{stroke-linecap:round;}</style></defs><g id="Layer_2" data-name="Layer 2"><g id="Layer_1-2" data-name="Layer 1"><polygon class="cls-1" points="500.07 626.59 501.57 299.09 624.08 178.59 813.08 178.59 813.08 506.59 689.08 627.59 500.07 626.59"/><rect class="cls-2" x="136.58" y="178.09" width="676" height="328"/><rect class="cls-2" x="12.58" y="299.09" width="676" height="328"/><line class="cls-2" x1="12.58" y1="627.09" x2="136.58" y2="506.09"/><line class="cls-2" x1="12.58" y1="299.09" x2="136.58" y2="178.09"/><polygon class="cls-2" points="623.63 506.55 499.63 627.55 501.57 299.09 623.63 178.55 623.63 506.55"/><polyline class="cls-2" points="812.58 506.09 688.58 627.09 499.63 627.55 501.57 299.09 623.63 178.55"/><polyline class="cls-2" points="812.58 506.59 812.58 178.09 688.58 299.09"/><line class="cls-3" x1="630.08" y1="457.59" x2="663.82" y2="457.59"/><polygon points="653.88 469.86 651.84 467.66 662.67 457.59 651.84 447.52 653.88 445.32 667.08 457.59 653.88 469.86"/><circle class="cls-4" cx="619.08" cy="457.59" r="21"/><line class="cls-3" x1="667.08" y1="371.09" x2="700.82" y2="371.09"/><polygon points="690.88 383.36 688.84 381.16 699.67 371.09 688.84 361.02 690.88 358.82 704.08 371.09 690.88 383.36"/><circle class="cls-4" cx="656.08" cy="370.59" r="21"/><polygon class="cls-5" points="689.08 298.59 689.08 626.59 812.08 506.59 812.08 178.59 689.08 298.59"/><text class="cls-6" transform="translate(857.93 301.4)">A</text><line class="cls-7" x1="799.08" y1="310.59" x2="885.08" y2="310.59"/><line class="cls-3" x1="12.58" y1="627.67" x2="916.82" y2="627.67"/><polygon points="906.88 639.94 904.84 637.74 915.67 627.67 904.84 617.6 906.88 615.4 920.08 627.67 906.88 639.94"/><line x1="12.27" y1="628.59" x2="12.27" y2="28.59"/><line class="cls-3" x1="12.27" y1="628.59" x2="12.27" y2="31.84"/><polygon points="24.54 41.78 22.34 43.83 12.27 32.99 2.2 43.83 0 41.78 12.27 28.59 24.54 41.78"/><polyline class="cls-3" points="500.07 642.95 500.07 655.2 689.08 655.2 689.08 642.95"/><text class="cls-8" transform="translate(551.86 697.8)">v</text><text class="cls-8" transform="translate(574.47 713.45) scale(0.58)">x</text><text class="cls-8" transform="translate(587.16 697.8)"><tspan xml:space="preserve"> dt</tspan></text><text class="cls-8" transform="translate(930.93 678.65)">x</text><text class="cls-8" transform="translate(42.84 39.34)">y</text></g></g></svg>